<svg xmlns="http://www.w3.org/2000/svg" width="11.554" height="11.552" viewBox="0 0 11.554 11.552">
  <path id="Icon_awesome-instagram" data-name="Icon awesome-instagram" d="M5.773,5.052A2.962,2.962,0,1,0,8.735,8.013,2.957,2.957,0,0,0,5.773,5.052Zm0,4.887A1.925,1.925,0,1,1,7.7,8.013,1.929,1.929,0,0,1,5.773,9.939ZM9.547,4.931a.691.691,0,1,1-.691-.691A.689.689,0,0,1,9.547,4.931Zm1.962.7a3.419,3.419,0,0,0-.933-2.42,3.441,3.441,0,0,0-2.42-.933c-.954-.054-3.812-.054-4.766,0a3.436,3.436,0,0,0-2.42.931,3.43,3.43,0,0,0-.933,2.42c-.054.954-.054,3.812,0,4.766a3.419,3.419,0,0,0,.933,2.42,3.445,3.445,0,0,0,2.42.933c.954.054,3.812.054,4.766,0a3.419,3.419,0,0,0,2.42-.933,3.441,3.441,0,0,0,.933-2.42c.054-.954.054-3.81,0-4.763Zm-1.232,5.787a1.949,1.949,0,0,1-1.1,1.1,12.73,12.73,0,0,1-3.4.232,12.83,12.83,0,0,1-3.4-.232,1.949,1.949,0,0,1-1.1-1.1,12.731,12.731,0,0,1-.232-3.405A12.83,12.83,0,0,1,1.27,4.608a1.949,1.949,0,0,1,1.1-1.1,12.73,12.73,0,0,1,3.4-.232,12.83,12.83,0,0,1,3.4.232,1.949,1.949,0,0,1,1.1,1.1,12.731,12.731,0,0,1,.232,3.405A12.724,12.724,0,0,1,10.276,11.419Z" transform="translate(0.005 -2.238)"/>
</svg>
