<svg xmlns="http://www.w3.org/2000/svg" width="12.219" height="12.219" viewBox="0 0 12.219 12.219">
  <path id="Icon_simple-whatsapp" data-name="Icon simple-whatsapp" d="M8.908,7.322c-.153-.076-.9-.441-1.039-.492s-.241-.076-.343.076-.393.491-.481.592-.178.107-.329.038A4.132,4.132,0,0,1,5.494,6.78a4.619,4.619,0,0,1-.845-1.054c-.089-.153-.01-.237.066-.313s.153-.176.23-.266A1.291,1.291,0,0,0,5.1,4.895a.28.28,0,0,0-.013-.267C5.045,4.552,4.741,3.8,4.614,3.5s-.248-.26-.342-.26-.189-.008-.291-.008a.574.574,0,0,0-.406.183,1.7,1.7,0,0,0-.532,1.26,2.979,2.979,0,0,0,.621,1.566,6.789,6.789,0,0,0,2.6,2.283c.364.153.647.244.868.32a2.106,2.106,0,0,0,.957.062,1.567,1.567,0,0,0,1.026-.726A1.26,1.26,0,0,0,9.2,7.46c-.038-.069-.137-.107-.29-.176M6.14,11.073H6.132a5.093,5.093,0,0,1-2.574-.7l-.183-.109-1.909.5L1.978,8.9l-.122-.191A5.049,5.049,0,0,1,9.72,2.482,4.983,4.983,0,0,1,11.2,6.041a5.056,5.056,0,0,1-5.058,5.033m4.3-9.318A6.182,6.182,0,0,0,6.132,0,6.053,6.053,0,0,0,.863,9.082L0,12.219l3.225-.841a6.141,6.141,0,0,0,2.907.737h0a6.079,6.079,0,0,0,6.083-6.056,6,6,0,0,0-1.779-4.282"/>
</svg>
