<svg xmlns="http://www.w3.org/2000/svg" width="13.196" height="13.916" viewBox="0 0 13.196 13.916">
  <path id="Icon_awesome-viber" data-name="Icon awesome-viber" d="M12.635,1.358C12.29,1.04,10.893.026,7.779.012c0,0-3.671-.22-5.46,1.421A5.947,5.947,0,0,0,.936,5.695C.9,7.5.852,10.888,4.115,11.807h0l0,1.4s-.022.568.353.682c.451.141.717-.291,1.15-.755.236-.255.563-.63.81-.916a12.628,12.628,0,0,0,4.144-.3,4.081,4.081,0,0,0,3.416-3.859c.429-3.495-.207-5.7-1.353-6.7ZM13.013,7.8a3.238,3.238,0,0,1-2.8,3.128,11.683,11.683,0,0,1-3.565.3s-1.413,1.7-1.853,2.147c-.144.144-.3.13-.3-.155,0-.188.011-2.329.011-2.329h0C1.74,10.13,1.9,7.247,1.933,5.738A4.956,4.956,0,0,1,3.091,2.162C4.6.79,7.722.994,7.722.994c2.633.011,3.894.8,4.188,1.071.97.832,1.465,2.821,1.1,5.737Zm-3.777-2.2a.175.175,0,1,1-.351.016A.84.84,0,0,0,8,4.7a.176.176,0,0,1,.019-.351A1.182,1.182,0,0,1,9.235,5.605Zm.552.307a2.03,2.03,0,0,0-2.06-2.155.176.176,0,0,1,.024-.351,2.38,2.38,0,0,1,2.386,2.514.175.175,0,0,1-.351-.008Zm1.277.364a.175.175,0,0,1-.351,0A3.2,3.2,0,0,0,7.431,2.844a.175.175,0,0,1,0-.351A3.555,3.555,0,0,1,11.064,6.277Zm-.307,2.666v.005c-.293.516-.842,1.087-1.408.9l-.005-.008A10.446,10.446,0,0,1,6.567,8.309,7.1,7.1,0,0,1,5.414,7.157a8.819,8.819,0,0,1-.837-1.266,8.12,8.12,0,0,1-.707-1.514c-.182-.565.386-1.114.9-1.408h.005a.5.5,0,0,1,.649.106s.337.4.481.6.318.481.413.647a.567.567,0,0,1-.1.723L5.9,5.306a.478.478,0,0,0-.144.38A3.4,3.4,0,0,0,8.045,7.978a.478.478,0,0,0,.38-.144l.261-.326a.567.567,0,0,1,.723-.1,7.041,7.041,0,0,1,1.245.894.485.485,0,0,1,.1.641Z" transform="translate(-0.927 -0.003)"/>
</svg>
