<svg xmlns="http://www.w3.org/2000/svg" width="9.587" height="15.339" viewBox="0 0 9.587 15.339">
  <path id="Icon_metro-location" data-name="Icon metro-location" d="M13.148,1.928A4.793,4.793,0,0,0,8.355,6.721c0,4.793,4.793,10.545,4.793,10.545s4.793-5.752,4.793-10.545a4.793,4.793,0,0,0-4.793-4.793Zm0,7.729a2.936,2.936,0,1,1,2.936-2.936A2.936,2.936,0,0,1,13.148,9.657ZM11.291,6.721a1.857,1.857,0,1,1,1.857,1.857A1.857,1.857,0,0,1,11.291,6.721Z" transform="translate(-8.355 -1.928)" fill="#fff"/>
</svg>
