<?xml version="1.0" encoding="UTF-8"?><!DOCTYPE svg PUBLIC "-//W3C//DTD SVG 1.1//EN" "http://www.w3.org/Graphics/SVG/1.1/DTD/svg11.dtd"><svg xmlns="http://www.w3.org/2000/svg" xmlns:xlink="http://www.w3.org/1999/xlink"><symbol id="icon-arrow-right"><path d="M8.238.165a.586.586 0 000 .826l2.728 2.732H.579a.584.584 0 000 1.167h10.378L8.225 7.622a.59.59 0 000 .826.581.581 0 00.821 0l3.7-3.724a.655.655 0 00.121-.184.557.557 0 00.045-.224.585.585 0 00-.166-.408L9.046.184a.572.572 0 00-.808-.019z"/></symbol><symbol id="icon-bag"><g fill="none" stroke="#fff" stroke-linecap="round" stroke-linejoin="round" stroke-width="3"><path d="M5.1 1.5L1.5 6.3v16.8a2.4 2.4 0 002.4 2.4h16.8a2.4 2.4 0 002.4-2.4V6.3l-3.6-4.8zM1.5 6.3h21.6M17.1 11.1a4.8 4.8 0 11-9.6 0"/></g></symbol><symbol id="icon-burger"><g fill="none" stroke="#fff" stroke-linecap="round" stroke-linejoin="round" stroke-width="2"><path d="M1 10h27M1 1h27M1 19h27"/></g></symbol><symbol id="icon-dropdown"><path d="M4.761 3.801l3.6-3.6a.68.68 0 01.961.964L5.244 5.246a.679.679 0 01-.938.02L.2 1.166a.68.68 0 01.961-.964z"/></symbol><symbol id="icon-facebook"><path d="M5.353 6.016l.3-1.936H3.791V2.824a.968.968 0 011.093-1.045h.844V.131A10.3 10.3 0 004.23 0a2.363 2.363 0 00-2.529 2.605v1.476h-1.7v1.935h1.7V10.7h2.09V6.016z"/></symbol><symbol id="icon-favourite"><path d="M23.808 1.989a6.788 6.788 0 00-9.6 0l-1.31 1.309-1.308-1.309a6.789 6.789 0 10-9.6 9.6l1.307 1.314 9.6 9.6 9.6-9.6 1.308-1.308a6.788 6.788 0 000-9.6z" fill="#fff"/></symbol><symbol id="icon-instagram"><path d="M5.778 2.814A2.962 2.962 0 108.74 5.775a2.957 2.957 0 00-2.962-2.961zm0 4.887a1.925 1.925 0 111.927-1.926 1.929 1.929 0 01-1.927 1.926zm3.774-5.008a.691.691 0 11-.691-.691.689.689 0 01.691.691zm1.962.7a3.419 3.419 0 00-.933-2.42A3.441 3.441 0 008.161.04c-.954-.054-3.812-.054-4.766 0a3.436 3.436 0 00-2.42.931 3.43 3.43 0 00-.933 2.42c-.054.954-.054 3.812 0 4.766a3.419 3.419 0 00.933 2.42 3.445 3.445 0 002.42.933c.954.054 3.812.054 4.766 0a3.419 3.419 0 002.42-.933 3.441 3.441 0 00.933-2.42c.054-.954.054-3.81 0-4.763zM10.282 9.18a1.949 1.949 0 01-1.1 1.1 12.73 12.73 0 01-3.4.232 12.83 12.83 0 01-3.4-.232 1.949 1.949 0 01-1.1-1.1 12.731 12.731 0 01-.232-3.405 12.83 12.83 0 01.225-3.405 1.949 1.949 0 011.1-1.1 12.73 12.73 0 013.4-.232 12.83 12.83 0 013.4.232 1.949 1.949 0 011.1 1.1 12.731 12.731 0 01.232 3.405 12.724 12.724 0 01-.226 3.406z"/></symbol><symbol id="icon-phone"><path d="M14.16 10.412a9.5 9.5 0 01-2.974-.475.836.836 0 00-.845.2l-1.833 1.837a12.566 12.566 0 01-5.489-5.481l1.833-1.837a.836.836 0 00.2-.845A9.528 9.528 0 014.577.833.83.83 0 003.744 0H.833A.83.83 0 000 .833a14.159 14.159 0 0014.16 14.16.83.83 0 00.833-.833v-2.915a.83.83 0 00-.833-.833zm-.833-2.915h1.666a7.5 7.5 0 00-7.5-7.5v1.669a5.832 5.832 0 015.835 5.831zm-3.332 0h1.666a4.166 4.166 0 00-4.165-4.165v1.666a2.5 2.5 0 012.5 2.499z" fill="#ffc62b"/></symbol><symbol id="icon-pin"><path d="M4.793 0A4.793 4.793 0 000 4.793c0 4.793 4.793 10.545 4.793 10.545S9.586 9.586 9.586 4.793A4.793 4.793 0 004.793 0zm0 7.729a2.936 2.936 0 112.936-2.936 2.936 2.936 0 01-2.936 2.936zM2.936 4.793A1.857 1.857 0 114.793 6.65a1.857 1.857 0 01-1.857-1.857z" fill="#fff"/></symbol><symbol id="icon-scale"><path d="M13.368 17.545c0-.845.07-.456-4.441-9.478a2.508 2.508 0 00-4.484 0C-.108 17.166 0 16.727 0 17.545c0 2.307 2.993 4.177 6.684 4.177s6.684-1.87 6.684-4.177zM6.684 9.19l3.76 7.519h-7.52zm26.734 8.355c0-.845.07-.456-4.441-9.478a2.508 2.508 0 00-4.484 0c-4.549 9.1-4.441 8.66-4.441 9.478 0 2.307 2.993 4.177 6.684 4.177s6.684-1.87 6.684-4.177zm-10.442-.835l3.76-7.519 3.76 7.519zm4.6 6.684H18.38V8a4.181 4.181 0 002.42-2.987h6.768a.835.835 0 00.835-.835V2.506a.835.835 0 00-.835-.835h-7.535a4.14 4.14 0 00-6.646 0H5.848a.835.835 0 00-.835.835v1.671a.835.835 0 00.835.835h6.768A4.18 4.18 0 0015.039 8v15.393H5.848a.835.835 0 00-.835.835V25.9a.835.835 0 00.835.835h21.723a.835.835 0 00.835-.835v-1.671a.835.835 0 00-.835-.836z" fill="#fff"/></symbol><symbol id="icon-search"><path d="M26.684 25.052l-7.509-7.58a10.7 10.7 0 10-1.624 1.645l7.46 7.53a1.156 1.156 0 001.631.042 1.163 1.163 0 00.042-1.637zm-15.919-5.845a8.45 8.45 0 115.977-2.475 8.4 8.4 0 01-5.977 2.475z"/></symbol><symbol id="icon-telegram"><path d="M11.299.865l-1.71 8.063c-.129.569-.465.711-.943.443l-2.6-1.92-1.264 1.208a.654.654 0 01-.524.255l.187-2.653 4.829-4.362c.21-.187-.046-.291-.326-.1L2.979 5.554.409 4.75c-.559-.175-.569-.559.116-.827L10.575.051c.465-.175.873.1.721.814z"/></symbol><symbol id="icon-user"><g fill="none" stroke="#fff" stroke-linecap="round" stroke-linejoin="round"><path d="M11.061 12.381v-1.32a2.64 2.64 0 00-2.64-2.64H3.14a2.64 2.64 0 00-2.64 2.64v1.32M8.42 3.14A2.64 2.64 0 115.78.5a2.64 2.64 0 012.64 2.64z"/></g></symbol><symbol id="icon-viber"><path d="M11.708 1.355C11.363 1.037 9.966.023 6.852.009c0 0-3.671-.22-5.46 1.421A5.947 5.947 0 00.009 5.692c-.036 1.805-.084 5.193 3.179 6.112v1.4s-.022.568.353.682c.451.141.717-.291 1.15-.755.236-.255.563-.63.81-.916a12.628 12.628 0 004.144-.3 4.081 4.081 0 003.416-3.859c.429-3.495-.207-5.7-1.353-6.7zm.378 6.442a3.238 3.238 0 01-2.8 3.128 11.683 11.683 0 01-3.565.3s-1.413 1.7-1.853 2.147c-.144.144-.3.13-.3-.155l.011-2.329C.813 10.127.973 7.244 1.006 5.735a4.956 4.956 0 011.158-3.576C3.673.787 6.795.991 6.795.991c2.633.011 3.894.8 4.188 1.071.97.832 1.465 2.821 1.1 5.737zm-3.777-2.2a.176.176 0 11-.351.016.84.84 0 00-.885-.916.176.176 0 01.019-.351 1.182 1.182 0 011.216 1.256zm.552.307a2.03 2.03 0 00-2.06-2.155.176.176 0 01.024-.351 2.38 2.38 0 012.386 2.514.176.176 0 01-.351-.008zm1.277.364a.175.175 0 01-.351 0 3.2 3.2 0 00-3.283-3.427.175.175 0 010-.351 3.555 3.555 0 013.633 3.784zm-.307 2.666v.005c-.293.516-.842 1.087-1.408.9l-.005-.008A10.446 10.446 0 015.64 8.306a7.1 7.1 0 01-1.153-1.152 8.819 8.819 0 01-.837-1.266 8.12 8.12 0 01-.707-1.514c-.182-.565.386-1.114.9-1.408h.005a.5.5 0 01.649.106s.337.4.481.6.318.481.413.647a.567.567 0 01-.1.723l-.318.261a.478.478 0 00-.144.38 3.4 3.4 0 002.289 2.292.478.478 0 00.38-.144l.261-.326a.567.567 0 01.723-.1 7.041 7.041 0 011.245.894.485.485 0 01.1.641z"/></symbol><symbol id="icon-whatsapp"><path d="M8.908 7.322c-.153-.076-.9-.441-1.039-.492s-.241-.076-.343.076-.393.491-.481.592-.178.107-.329.038a4.132 4.132 0 01-1.222-.756 4.619 4.619 0 01-.845-1.054c-.089-.153-.01-.237.066-.313s.153-.176.23-.266a1.291 1.291 0 00.155-.252.28.28 0 00-.013-.267c-.042-.076-.346-.828-.473-1.128s-.248-.26-.342-.26-.189-.008-.291-.008a.574.574 0 00-.406.183 1.7 1.7 0 00-.532 1.26 2.979 2.979 0 00.621 1.566 6.789 6.789 0 002.6 2.283c.364.153.647.244.868.32a2.106 2.106 0 00.957.062 1.567 1.567 0 001.026-.726 1.26 1.26 0 00.085-.72c-.038-.069-.137-.107-.29-.176m-2.77 3.789h-.008a5.093 5.093 0 01-2.574-.7l-.183-.109-1.909.5.512-1.864-.122-.191A5.049 5.049 0 019.72 2.482a4.983 4.983 0 011.48 3.559 5.056 5.056 0 01-5.058 5.033m4.3-9.318A6.182 6.182 0 006.132 0 6.053 6.053 0 00.863 9.082L0 12.219l3.225-.841a6.141 6.141 0 002.907.737 6.079 6.079 0 006.083-6.056 6 6 0 00-1.779-4.282"/></symbol></svg>